<?xml version="1.0" encoding="utf-8"?>
<!-- Generator: Adobe Illustrator 21.0.0, SVG Export Plug-In . SVG Version: 6.00 Build 0)  -->
<!DOCTYPE svg PUBLIC "-//W3C//DTD SVG 1.1//EN" "http://www.w3.org/Graphics/SVG/1.1/DTD/svg11.dtd">
<svg version="1.1" id="Ebene_1" xmlns="http://www.w3.org/2000/svg" xmlns:xlink="http://www.w3.org/1999/xlink" x="0px" y="0px"
	 viewBox="0 0 612 170.3" style="enable-background:new 0 0 612 170.3;" xml:space="preserve">
<style type="text/css">
	.st0{fill:#009BA3;}
	.st1{fill:#007480;}
	.st2{fill:#FFCB00;}
	.st3{fill:#75BE01;}
	.st4{fill:#32912E;}
	.st5{fill:#E10057;}
	.st6{fill:#A70836;}
	.st7{fill:#FF9D01;}
</style>
<polygon class="st0" points="467.7,70.5 459.1,62 459.1,62 438.4,41.2 429.8,49.8 450.6,70.5 429.8,91.3 438.4,99.8 459.1,79 
	459.1,79 "/>
<rect x="453.1" y="64.5" transform="matrix(-0.7074 0.7069 -0.7069 -0.7074 833.7097 -204.1513)" class="st1" width="12.1" height="12.1"/>
<g>
	<path d="M40.9,51h9.2l10.3,16.5L70.6,51h9.2v39h-8.5V64.5l-11,16.7h-0.2L49.3,64.7V90h-8.4V51z"/>
	<path d="M91.3,51h8.6v39h-8.6V51z"/>
	<path d="M109.6,70.6v-0.1c0-11.1,8.4-20.2,20.3-20.2c7.4,0,11.8,2.5,15.4,6l-5.5,6.3c-3-2.7-6.1-4.4-10-4.4
		c-6.6,0-11.3,5.5-11.3,12.1v0.1c0,6.7,4.6,12.3,11.3,12.3c4.5,0,7.2-1.8,10.3-4.6l5.5,5.5c-4,4.3-8.5,7-16,7
		C118.1,90.7,109.6,81.8,109.6,70.6z"/>
	<path d="M154.1,51h17.8c5,0,8.8,1.4,11.4,4c2.2,2.2,3.3,5.2,3.3,8.9V64c0,6.3-3.4,10.3-8.4,12.1l9.5,13.9h-10l-8.4-12.5h-6.7V90
		h-8.6V51z M171.4,69.9c4.2,0,6.6-2.2,6.6-5.5v-0.1c0-3.7-2.6-5.6-6.7-5.6h-8.5v11.2H171.4z"/>
	<path d="M194.3,70.6v-0.1c0-11.1,8.7-20.2,20.8-20.2c12,0,20.7,9,20.7,20.1v0.1c0,11.1-8.7,20.2-20.8,20.2
		C203,90.7,194.3,81.7,194.3,70.6z M226.8,70.6v-0.1c0-6.7-4.9-12.3-11.8-12.3c-6.9,0-11.7,5.5-11.7,12.1v0.1
		c0,6.7,4.9,12.3,11.8,12.3S226.8,77.3,226.8,70.6z"/>
	<path d="M245.1,51h9.2l10.3,16.5L274.8,51h9.2v39h-8.5V64.5l-11,16.7h-0.2l-10.9-16.5V90h-8.4V51z"/>
	<path d="M308.5,50.7h7.9L333.1,90h-9l-3.6-8.7h-16.5l-3.6,8.7h-8.7L308.5,50.7z M317.5,73.7L312.3,61l-5.2,12.6H317.5z"/>
	<path d="M344.8,58.9H333V51h32.3v7.9h-11.9V90h-8.6V58.9z"/>
	<path d="M381.9,50.7h7.9L406.5,90h-9l-3.6-8.7h-16.5l-3.6,8.7h-8.7L381.9,50.7z M390.9,73.7L385.7,61l-5.2,12.6H390.9z"/>
</g>
<polygon class="st2" points="506.7,41.2 498.1,49.8 518.9,70.5 498.1,91.3 506.7,99.8 536,70.5 "/>
<polygon class="st3" points="570.1,70.5 561.6,62 561.6,62 540.8,41.2 532.3,49.8 553,70.5 532.3,91.3 540.8,99.8 561.6,79 
	561.6,79 "/>
<rect x="555.5" y="64.5" transform="matrix(-0.7074 0.7069 -0.7069 -0.7074 1008.6337 -276.5723)" class="st4" width="12.1" height="12.1"/>
<polygon class="st5" points="472.5,41.2 464,49.8 484.7,70.5 464,91.3 472.5,99.8 493.3,79 501.8,70.5 "/>
<rect x="487.2" y="64.5" transform="matrix(-0.7071 0.7072 -0.7072 -0.7071 891.8915 -228.459)" class="st6" width="12.1" height="12.1"/>
<rect x="521.4" y="64.5" transform="matrix(-0.7071 0.7072 -0.7072 -0.7071 950.1878 -252.6086)" class="st7" width="12.1" height="12.1"/>
<g>
	<path d="M227.1,120h13.5v1.9h-11.4v6.4h10.2v1.9h-10.2v6.5h11.5v1.9h-13.6V120z"/>
	<path d="M244.6,124.8h2v3.6c1-2.3,3-3.9,5.6-3.8v2.2h-0.2c-3,0-5.5,2.2-5.5,6.3v5.5h-2V124.8z"/>
	<path d="M256.1,126.6h-1.9v-1.8h1.9v-1.2c0-1.6,0.4-2.8,1.2-3.5c0.7-0.7,1.7-1.1,3-1.1c1,0,1.6,0.1,2.3,0.3v1.8
		c-0.7-0.2-1.3-0.3-2-0.3c-1.6,0-2.4,1-2.4,2.9v1.1h4.4v1.8h-4.3v11.9h-2V126.6z"/>
	<path d="M264,131.8L264,131.8c0-3.9,3-7.2,7.2-7.2c4.1,0,7.2,3.2,7.2,7.1v0.1c0,3.9-3.1,7.2-7.2,7.2C267,138.9,264,135.6,264,131.8
		z M276.2,131.8L276.2,131.8c0-3-2.2-5.4-5.1-5.4c-3,0-5,2.4-5,5.3v0.1c0,3,2.2,5.3,5.1,5.3C274.2,137.1,276.2,134.7,276.2,131.8z"
		/>
	<path d="M282.2,119.2h2v19.4h-2V119.2z"/>
	<path d="M288.9,141l0.9-1.6c1.6,1.1,3.3,1.8,5.3,1.8c3,0,5-1.7,5-4.9v-1.6c-1.2,1.6-2.9,2.9-5.4,2.9c-3.3,0-6.5-2.5-6.5-6.4V131
		c0-4,3.2-6.5,6.5-6.5c2.6,0,4.3,1.3,5.4,2.8v-2.5h2v11.4c0,2.1-0.6,3.8-1.8,4.9c-1.2,1.2-3.1,1.8-5.2,1.8
		C292.8,142.9,290.7,142.2,288.9,141z M300.2,131L300.2,131c0-2.9-2.4-4.7-5.1-4.7s-4.8,1.8-4.8,4.6v0.1c0,2.8,2.2,4.7,4.8,4.7
		C297.7,135.7,300.2,133.8,300.2,131z"/>
	<path d="M314.7,119.6h2.3v2.3h-2.3V119.6z M314.9,124.8h2v13.8h-2V124.8z"/>
	<path d="M320.5,136.8l1-1.5c1.5,1.1,3.1,1.8,4.8,1.8c1.6,0,2.8-0.9,2.8-2.2v-0.1c0-1.4-1.6-1.9-3.4-2.4c-2.2-0.6-4.5-1.4-4.5-3.9
		v-0.1c0-2.4,2-3.9,4.7-3.9c1.7,0,3.5,0.6,4.9,1.5l-0.9,1.5c-1.3-0.8-2.7-1.3-4.1-1.3c-1.6,0-2.7,0.9-2.7,2v0.1
		c0,1.3,1.7,1.8,3.5,2.4c2.1,0.6,4.4,1.5,4.4,3.9v0.1c0,2.6-2.2,4.1-4.9,4.1C324.3,138.8,322.1,138.1,320.5,136.8z"/>
	<path d="M335.4,134.9v-8.3h-1.9v-1.8h1.9v-4.1h2v4.1h4.4v1.8h-4.4v8c0,1.7,0.9,2.3,2.3,2.3c0.7,0,1.3-0.1,2-0.5v1.8
		c-0.7,0.4-1.5,0.6-2.5,0.6C337.1,138.8,335.4,137.7,335.4,134.9z"/>
	<path d="M353.4,124.8h2v2.8c1.1-1.6,2.7-3.1,5.3-3.1c3.3,0,6.6,2.6,6.6,7.1v0.1c0,4.5-3.2,7.2-6.6,7.2c-2.6,0-4.2-1.4-5.3-2.9v6.9
		h-2V124.8z M365.2,131.7L365.2,131.7c0-3.3-2.2-5.4-4.8-5.4c-2.6,0-5,2.2-5,5.3v0.1c0,3.2,2.4,5.3,5,5.3
		C363,137,365.2,135.1,365.2,131.7z"/>
	<path d="M371.1,124.8h2v3.6c1-2.3,3-3.9,5.6-3.8v2.2h-0.2c-3,0-5.5,2.2-5.5,6.3v5.5h-2V124.8z"/>
	<path d="M380.4,131.8L380.4,131.8c0-3.9,3-7.2,7.2-7.2c4.1,0,7.2,3.2,7.2,7.1v0.1c0,3.9-3.1,7.2-7.2,7.2
		C383.4,138.9,380.4,135.6,380.4,131.8z M392.6,131.8L392.6,131.8c0-3-2.2-5.4-5.1-5.4c-3,0-5,2.4-5,5.3v0.1c0,3,2.2,5.3,5.1,5.3
		C390.6,137.1,392.6,134.7,392.6,131.8z"/>
	<path d="M398.3,141l0.9-1.6c1.6,1.1,3.3,1.8,5.3,1.8c3,0,5-1.7,5-4.9v-1.6c-1.2,1.6-2.9,2.9-5.4,2.9c-3.3,0-6.5-2.5-6.5-6.4V131
		c0-4,3.2-6.5,6.5-6.5c2.6,0,4.3,1.3,5.4,2.8v-2.5h2v11.4c0,2.1-0.6,3.8-1.8,4.9c-1.2,1.2-3.1,1.8-5.2,1.8
		C402.2,142.9,400.1,142.2,398.3,141z M409.5,131L409.5,131c0-2.9-2.4-4.7-5.1-4.7c-2.6,0-4.8,1.8-4.8,4.6v0.1
		c0,2.8,2.2,4.7,4.8,4.7C407.1,135.7,409.5,133.8,409.5,131z"/>
	<path d="M416.1,124.8h2v3.6c1-2.3,3-3.9,5.6-3.8v2.2h-0.2c-3,0-5.5,2.2-5.5,6.3v5.5h-2V124.8z"/>
	<path d="M425.2,134.6L425.2,134.6c0-3,2.4-4.5,5.9-4.5c1.8,0,3,0.2,4.2,0.6v-0.5c0-2.5-1.5-3.8-4.1-3.8c-1.6,0-2.9,0.4-4.2,1
		l-0.6-1.7c1.5-0.7,3-1.1,5-1.1c1.9,0,3.4,0.5,4.4,1.5c0.9,0.9,1.4,2.3,1.4,4v8.4h-2v-2.1c-1,1.2-2.6,2.4-5,2.4
		C427.7,138.9,425.2,137.4,425.2,134.6z M435.3,133.5v-1.3c-1-0.3-2.4-0.6-4-0.6c-2.6,0-4,1.1-4,2.8v0.1c0,1.7,1.6,2.7,3.5,2.7
		C433.2,137.2,435.3,135.7,435.3,133.5z"/>
	<path d="M441.6,124.8h2v2.3c0.9-1.4,2.1-2.6,4.4-2.6c2.2,0,3.7,1.2,4.4,2.7c1-1.5,2.4-2.7,4.8-2.7c3.2,0,5.1,2.1,5.1,5.5v8.5h-2v-8
		c0-2.7-1.3-4.1-3.6-4.1c-2.1,0-3.8,1.5-3.8,4.3v7.9h-2v-8.1c0-2.6-1.4-4.1-3.5-4.1c-2.2,0-3.8,1.8-3.8,4.3v7.8h-2V124.8z"/>
	<path d="M466.9,124.8h2v2.3c0.9-1.4,2.1-2.6,4.4-2.6c2.2,0,3.7,1.2,4.4,2.7c1-1.5,2.4-2.7,4.8-2.7c3.2,0,5.1,2.1,5.1,5.5v8.5h-2v-8
		c0-2.7-1.3-4.1-3.6-4.1c-2.1,0-3.8,1.5-3.8,4.3v7.9h-2v-8.1c0-2.6-1.4-4.1-3.5-4.1c-2.2,0-3.8,1.8-3.8,4.3v7.8h-2V124.8z"/>
	<path d="M492.3,119.6h2.3v2.3h-2.3V119.6z M492.4,124.8h2v13.8h-2V124.8z"/>
	<path d="M498.3,131.7L498.3,131.7c0-4,2.8-7.2,6.6-7.2c4.1,0,6.4,3.2,6.4,7.3c0,0.3,0,0.4,0,0.7h-10.9c0.3,3,2.4,4.7,4.8,4.7
		c1.9,0,3.2-0.8,4.3-1.9l1.3,1.1c-1.4,1.5-3.1,2.6-5.7,2.6C501.4,138.9,498.3,136,498.3,131.7z M509.3,130.9
		c-0.2-2.5-1.6-4.7-4.4-4.7c-2.4,0-4.2,2-4.5,4.7H509.3z"/>
	<path d="M514.9,124.8h2v3.6c1-2.3,3-3.9,5.6-3.8v2.2h-0.2c-3,0-5.5,2.2-5.5,6.3v5.5h-2V124.8z"/>
	<path d="M527.8,135.9v2.6h-2v-19.4h2v8.4c1.1-1.6,2.7-3.1,5.3-3.1c3.3,0,6.6,2.6,6.6,7.1v0.1c0,4.5-3.2,7.2-6.6,7.2
		C530.5,138.9,528.8,137.5,527.8,135.9z M537.5,131.7L537.5,131.7c0-3.3-2.2-5.4-4.8-5.4c-2.6,0-5,2.2-5,5.3v0.1
		c0,3.2,2.4,5.3,5,5.3C535.3,137,537.5,135.1,537.5,131.7z"/>
	<path d="M542.3,134.6L542.3,134.6c0-3,2.4-4.5,5.9-4.5c1.8,0,3,0.2,4.2,0.6v-0.5c0-2.5-1.5-3.8-4.1-3.8c-1.6,0-2.9,0.4-4.2,1
		l-0.6-1.7c1.5-0.7,3-1.1,5-1.1c1.9,0,3.4,0.5,4.4,1.5c0.9,0.9,1.4,2.3,1.4,4v8.4h-2v-2.1c-1,1.2-2.6,2.4-5,2.4
		C544.9,138.9,542.3,137.4,542.3,134.6z M552.5,133.5v-1.3c-1-0.3-2.4-0.6-4-0.6c-2.6,0-4,1.1-4,2.8v0.1c0,1.7,1.6,2.7,3.5,2.7
		C550.4,137.2,552.5,135.7,552.5,133.5z"/>
	<path d="M558.8,124.8h2v3.6c1-2.3,3-3.9,5.6-3.8v2.2h-0.2c-3,0-5.5,2.2-5.5,6.3v5.5h-2V124.8z"/>
	<path d="M566.9,135.8h2.4v2.8h-2.4V135.8z"/>
</g>
</svg>
