<svg xmlns="http://www.w3.org/2000/svg" viewBox="0 0 168 84">
  <g clip-rule="evenodd" fill-rule="evenodd" stroke-linejoin="round" stroke-miterlimit="1.4">
    <path d="M55.6 12.3V1h5.6L61 2.2h-4v4.1h3.7v1.2H57v4.8h-1.5zm12-5.2V8a23.2 23.2 0 0 1-.1.7h-4c0 .9.2 1.6.6 2 .3.4.8.7 1.5.7l.6-.1a2.4 2.4 0 0 0 1-.6l.6.9a16.3 16.3 0 0 1-.7.6 3.2 3.2 0 0 1-.7.2 3.6 3.6 0 0 1-1 .1c-.5 0-1 0-1.3-.2a2.5 2.5 0 0 1-1-.8c-.3-.3-.5-.8-.7-1.3a7 7 0 0 1-.2-1.9c0-.7 0-1.3.2-1.8s.4-1 .7-1.3a2.6 2.6 0 0 1 2-1c.8 0 1.4.3 1.9.8.4.5.6 1.2.6 2.1zm-2.5-1.7c-.5 0-.8.2-1.1.5-.3.4-.5 1-.5 1.8h2.9v-.3a6.5 6.5 0 0 0 0-.3c0-.6-.1-1-.3-1.3-.3-.3-.6-.4-1-.4zm4 3.1c0-.8 0-1.4.2-2l.8-1.3 1.1-.7a4 4 0 0 1 1.3-.2h.6l.5.2V.7l1.3-.1v11.7h-1.2v-.8a1.9 1.9 0 0 1-.6.6 2.2 2.2 0 0 1-.5.3l-.8.1c-.4 0-.8 0-1-.2a2.3 2.3 0 0 1-1-.7l-.6-1.2-.2-1.9zm3 2.9a1.7 1.7 0 0 0 1.3-.6l.2-.2V5.7a2 2 0 0 0-.4-.2 1.9 1.9 0 0 0-.6 0l-.9.1-.7.5-.4 1a5 5 0 0 0-.2 1.4l.1 1.3.4 1a1.5 1.5 0 0 0 1.2.6zm10-4.3L82 8a23.2 23.2 0 0 1 0 .7h-4.1c0 .9.2 1.6.6 2 .4.4.9.7 1.5.7l.7-.1a2.4 2.4 0 0 0 1-.6l.5.9a16.3 16.3 0 0 1-.7.6 3.2 3.2 0 0 1-.7.2 3.6 3.6 0 0 1-1 .1c-.5 0-.9 0-1.3-.2a2.5 2.5 0 0 1-1-.8c-.3-.3-.5-.8-.7-1.3a7 7 0 0 1-.2-1.9c0-.7 0-1.3.2-1.8s.4-1 .7-1.3a2.6 2.6 0 0 1 2.1-1c.8 0 1.3.3 1.8.8.4.5.6 1.2.6 2.1zm-2.6-1.7c-.5 0-.8.2-1.1.5-.3.4-.5 1-.5 1.8h2.9v-.3a6.5 6.5 0 0 0 0-.3c0-.6-.1-1-.3-1.3-.2-.3-.6-.4-1-.4zm7.7.2a1 1 0 0 0-.2 0 1.6 1.6 0 0 0-.4-.1c-.4 0-.8.1-1 .3a2 2 0 0 0-.5.8v5.7h-1.3V4.5H85v1l.2-.4.4-.4.4-.3a1.9 1.9 0 0 1 .7 0h.7l-.2 1.2zm.8 4.7c0-.4.1-.8.3-1.1l.7-.8a3 3 0 0 1 1-.4H91.7v-.8c0-.7-.1-1.2-.3-1.4-.3-.3-.6-.4-1-.4s-.8 0-1 .3l-.6.4-.6-.9a4 4 0 0 1 .8-.6 3.5 3.5 0 0 1 1.6-.3c.8 0 1.4.2 1.8.6.4.5.6 1.2.6 2.2v3.6a14.6 14.6 0 0 0 .1 1.6H92l-.1-.8-.2.3a1.6 1.6 0 0 1-.4.4 2 2 0 0 1-.4.2 1.7 1.7 0 0 1-.7.1l-.8-.1a2 2 0 0 1-1.1-1.2 2.4 2.4 0 0 1-.2-.9zm2.4 1.1h.5l.4-.3.2-.2a7.2 7.2 0 0 1 .2-.3V9h-.4a3 3 0 0 0-1.5.3c-.3.2-.5.6-.5 1s.1.7.3.9c.2.2.5.3.8.3zm6-.9v.7l.6.2a1.2 1.2 0 0 0 .4-.1l.2 1a2.8 2.8 0 0 1-.4.1 2.4 2.4 0 0 1-.7 0c-.5 0-.8 0-1-.3-.4-.3-.5-.8-.5-1.5V.7l1.3-.1v9.9zM111.8 1v11.3h-1.3V6a37.6 37.6 0 0 1 0-2.2 19 19 0 0 1-1 3l-1.8 5.5h-1.1l-2-5.5a54 54 0 0 1-.8-3 25.2 25.2 0 0 1 0 1.3v7.2h-1.4V1h1.6l2.7 7.8a19.2 19.2 0 0 1 .5 2c0-.3 0-.6.2-.9l.3-1 2.6-7.9h1.5zm3.7 11.3h-1.3V4.5h1.3v7.8zm-.7-9.7c-.2 0-.5-.1-.6-.3a1 1 0 0 1-.3-.7c0-.3.1-.5.3-.7l.6-.2c.3 0 .5 0 .7.2l.2.7c0 .3 0 .5-.2.7a.8.8 0 0 1-.7.3zm7 9.7v-5c0-.7-.1-1.2-.3-1.5a1.6 1.6 0 0 0-2-.1l-.7.6v6h-1.3V4.5h1.2v.9a2 2 0 0 1 .7-.7 3 3 0 0 1 .6-.3l.8-.1 1 .1.7.5.5 1 .1 1.3v5.1H122zm4.7 0h-1.4V4.5h1.4v7.8zm-.7-9.7c-.3 0-.5-.1-.7-.3a1 1 0 0 1-.2-.7c0-.3 0-.5.2-.7l.7-.2c.3 0 .5 0 .6.2.2.2.3.4.3.7 0 .3-.1.5-.3.7a.8.8 0 0 1-.6.3zm6 3.5a3.3 3.3 0 0 0-.4-.4c-.2-.2-.5-.3-.9-.3-.3 0-.6 0-.8.3a.8.8 0 0 0-.3.5c0 .3.1.6.3.8.1.2.4.4.8.6l.4.3c.6.3 1 .6 1.3 1 .3.4.5.8.5 1.4 0 .7-.3 1.2-.7 1.6-.4.4-1 .6-1.8.6h-.9a3.6 3.6 0 0 1-.6-.3 2 2 0 0 1-.5-.3 3 3 0 0 1-.3-.3l.7-1 .2.2a2.2 2.2 0 0 0 .8.5h.6c.4 0 .7 0 .9-.2a.8.8 0 0 0 .3-.6 1.4 1.4 0 0 0 0-.5 1.1 1.1 0 0 0-.3-.4 2 2 0 0 0-.4-.3 19.1 19.1 0 0 0-.5-.3l-.5-.3-1.1-1a2 2 0 0 1-.4-1.4l.1-.8a2 2 0 0 1 .5-.6l.8-.5a2.5 2.5 0 0 1 .9-.1 3 3 0 0 1 .7 0 2.4 2.4 0 0 1 1 .6l.3.2-.6 1zm5.8-.5H136v4.3c0 .6 0 1 .2 1.2.1.2.4.3.7.3l.5-.1a1.7 1.7 0 0 0 .3-.2l.2 1.1a2.3 2.3 0 0 1-.4.2 2 2 0 0 1-.8.1c-.7 0-1.2-.1-1.6-.5-.3-.4-.5-1-.5-1.9V5.6h-1v-1l1-.1.2-2.2h1.2v2.2h1.9l-.2 1zm5 0a1 1 0 0 0-.3 0 1.6 1.6 0 0 0-.4-.1c-.4 0-.7.1-1 .3a2 2 0 0 0-.5.8v5.7h-1.3V4.5h1.2v1l.3-.4c0-.2.2-.3.3-.4l.4-.3a1.9 1.9 0 0 1 .7 0h.7l-.1 1.2zm6.5-1.1l-2.4 8.3c-.3 1-.7 1.7-1 2.2-.5.5-1 .7-1.9.7h-.4a2.2 2.2 0 0 1-.2-.1v-1.2l.2.1h.4c.4 0 .8-.1 1-.4.3-.3.5-.8.7-1.4v-.4l-2.5-7.8h1.5l1.2 4.3a99.9 99.9 0 0 1 .5 2.3l.2-1 .3-1.2 1.1-4.4h1.3zM55 24.9c0-.7 0-1.3.2-1.8.2-.6.4-1 .7-1.3a2.7 2.7 0 0 1 1-.8 3 3 0 0 1 1.2-.2c.5 0 .9 0 1.2.2l1 .8c.3.3.5.7.7 1.3l.2 1.8c0 .8 0 1.4-.2 2-.2.5-.4.9-.7 1.2-.3.3-.6.6-1 .7a3.2 3.2 0 0 1-2.5 0 2.4 2.4 0 0 1-1-.7l-.6-1.3L55 25zm4.8 0c0-1-.1-1.8-.4-2.2-.3-.5-.8-.8-1.3-.8-.6 0-1 .3-1.3.8-.3.4-.4 1.2-.4 2.2 0 1 .1 1.8.4 2.3.3.5.8.7 1.3.7s1-.2 1.3-.7c.3-.5.4-1.2.4-2.3zm6.3-2.8h-1.6v6.8h-1.3V22h-1v-.9l1-.2v-1.6l.1-1 .5-.8a1.7 1.7 0 0 1 .7-.4 2.6 2.6 0 0 1 1.6 0l.4.1-.3 1.1a1.6 1.6 0 0 0-.3-.1 1.2 1.2 0 0 0-.4 0c-.4 0-.6 0-.8.2l-.2 1V21h1.8l-.2 1zm10.2-3.4h-4v3.9H76v1.1h-3.7v4h4.4v1.2h-5.8V17.6h5.5v1zM78 25c0-.8 0-1.5.3-2 .2-.6.5-1 .8-1.3.3-.4.7-.6 1.1-.7a4 4 0 0 1 1.3-.2 3.2 3.2 0 0 1 1 .2v-3.8l1.4-.2V29h-1.2V28a1.9 1.9 0 0 1-.6.7 2.2 2.2 0 0 1-.6.3h-.8l-1-.1a2.3 2.3 0 0 1-.9-.8l-.6-1.2-.2-1.8zm3.1 2.8a1.7 1.7 0 0 0 1.3-.5l.2-.3v-4.8a2 2 0 0 0-.4-.2 1.9 1.9 0 0 0-.6-.1l-.9.1-.7.6c-.2.2-.4.5-.5.9a5 5 0 0 0-.1 1.4l.1 1.4c0 .3.2.6.4.9l.5.4.7.2zm10.3 1h-1.2v-1l-.2.4a2.1 2.1 0 0 1-.4.3l-.6.3-.8.2c-.4 0-.7 0-1-.2a1.7 1.7 0 0 1-.7-.5c-.2-.2-.4-.5-.5-.9a5 5 0 0 1-.1-1.3V21H87v5c0 .7.1 1.2.3 1.5.2.3.6.4 1 .4s.7-.1 1-.3l.6-.6v-6h1.3v7.9zm6.5-6.4a6 6 0 0 0-.2-.1 1.7 1.7 0 0 0-.3-.2 1.9 1.9 0 0 0-.4-.2 1.7 1.7 0 0 0-.5 0 2 2 0 0 0-.8.1l-.6.5c-.2.2-.3.5-.4.9a6.5 6.5 0 0 0 0 2.8c0 .4.2.7.3 1l.6.4.8.2c.4 0 .7 0 1-.2l.4-.4.5 1a2.4 2.4 0 0 1-.2.2 2 2 0 0 1-.4.3 2.7 2.7 0 0 1-.6.2h-.8l-1.3-.1a2.4 2.4 0 0 1-1-.7c-.2-.4-.5-.8-.6-1.3-.2-.5-.3-1.2-.3-2 0-.7.1-1.4.3-1.9l.8-1.3a3 3 0 0 1 1-.7 3.3 3.3 0 0 1 2.6.1l.4.3.2.2-.5 1zm1.4 4.4c0-.5.1-.9.3-1.2l.7-.7a3 3 0 0 1 1-.4l1.3-.1h.4v-.8c0-.7 0-1.1-.3-1.4-.2-.2-.6-.4-1-.4s-.7.1-1 .3l-.6.4-.6-.8a4 4 0 0 1 .9-.6 3.4 3.4 0 0 1 1.5-.4c.8 0 1.4.2 1.8.7.4.4.7 1.2.7 2.1v3.6a14 14 0 0 0 0 1.7h-1.2V28h-.1l-.2.3a1.6 1.6 0 0 1-.3.4 2 2 0 0 1-.5.3 1.7 1.7 0 0 1-.7 0h-.8a2 2 0 0 1-1.1-1.2 2.4 2.4 0 0 1-.2-1zm2.4 1a1.4 1.4 0 0 0 .9-.2l.2-.3a7.2 7.2 0 0 1 .2-.2v-1.8h-.4a3 3 0 0 0-1.4.4c-.4.2-.5.5-.5 1 0 .3 0 .6.3.8.1.2.4.3.7.3zm8-5.8H108v4.3c0 .6 0 1 .2 1.2.1.2.4.3.7.3h.5a1.7 1.7 0 0 0 .3-.2l.2 1a2.3 2.3 0 0 1-.4.2 2 2 0 0 1-.8.2c-.7 0-1.2-.2-1.5-.6-.4-.4-.5-1-.5-1.9v-4.5h-1v-.9l1-.2.1-2.2h1.2V21h1.9l-.2 1zm2.9 6.8H111V21h1.4V29zm-.7-9.8c-.3 0-.5 0-.7-.3a1 1 0 0 1-.2-.6c0-.3 0-.5.2-.7.2-.2.4-.3.7-.3.3 0 .5.1.6.3.2.2.3.4.3.7 0 .2-.1.5-.3.6a.8.8 0 0 1-.6.3zm2.3 5.8c0-.7.1-1.3.3-1.8.1-.6.4-1 .7-1.3a2.7 2.7 0 0 1 1-.8 3 3 0 0 1 1.2-.2 2.5 2.5 0 0 1 2.2 1l.6 1.3c.2.5.2 1.1.2 1.8 0 .8 0 1.4-.2 2-.2.5-.4.9-.7 1.2-.3.3-.6.6-1 .7a3.2 3.2 0 0 1-2.4 0 2.4 2.4 0 0 1-1-.7c-.3-.3-.5-.7-.6-1.3-.2-.5-.3-1.1-.3-1.9zm4.9 0c0-1-.2-1.8-.5-2.2-.3-.5-.7-.8-1.3-.8-.5 0-1 .3-1.3.8-.3.4-.4 1.2-.4 2.2 0 1 .2 1.8.5 2.3.3.5.7.7 1.2.7.6 0 1-.2 1.3-.7.3-.5.5-1.2.5-2.3zm7.3 4v-5c0-.8-.1-1.2-.3-1.5-.3-.3-.6-.5-1-.5s-.8.1-1 .3l-.7.6v6H122V21h1.2v.9a2 2 0 0 1 .7-.7 3 3 0 0 1 .6-.3h1.8l.7.6c.2.2.4.5.5.9l.1 1.3V29h-1.3zM55 43.4c0-.4 0-.8.3-1.1.1-.3.4-.6.7-.8a3 3 0 0 1 1-.4l1.3-.1h.4v-.8c0-.6-.1-1-.4-1.3-.2-.3-.5-.4-1-.4-.4 0-.7 0-1 .2a6 6 0 0 0-.6.5l-.5-.9.3-.3.5-.3a3.4 3.4 0 0 1 1.5-.4c.8 0 1.5.3 1.9.7.4.5.6 1.2.6 2.2v3.6a14.6 14.6 0 0 0 0 1.6h-1.2v-.9l-.3.4a1.6 1.6 0 0 1-.3.3 2 2 0 0 1-.5.3 1.7 1.7 0 0 1-.6.1c-.3 0-.6 0-.8-.2a2 2 0 0 1-1.2-1.1 2.4 2.4 0 0 1-.1-.9zm2.4 1a1.4 1.4 0 0 0 .8-.2l.3-.3a7.2 7.2 0 0 1 .2-.2V42h-.4a3 3 0 0 0-1.5.3c-.3.2-.5.5-.5 1 0 .4.1.7.3.9.2.2.4.3.8.3zm8.9 1v-5c0-.7-.1-1.2-.3-1.5-.3-.3-.6-.4-1-.4-.5 0-.8 0-1 .3l-.7.5v6.1H62v-7.9H63v1l.3-.4.4-.3a3 3 0 0 1 .6-.3l.8-.2 1 .2.7.5.5.9.1 1.3v5.2h-1.3zm3-3.8c0-.8 0-1.5.3-2 .2-.5.4-1 .8-1.3l1-.7a4 4 0 0 1 1.3-.2h.7l.4.2v-3.8l1.4-.1v11.7h-1.3v-.8a1.9 1.9 0 0 1-.5.6 2.2 2.2 0 0 1-.6.3l-.8.1c-.4 0-.7 0-1-.2a2.3 2.3 0 0 1-1-.7l-.5-1.3c-.2-.5-.3-1-.3-1.8zm3 2.8h.6a1.7 1.7 0 0 0 .7-.5l.2-.2v-4.9a2 2 0 0 0-.4-.2 1.9 1.9 0 0 0-.6 0H72l-.7.6-.5 1a5 5 0 0 0-.2 1.3c0 .6 0 1 .2 1.4 0 .4.2.7.3.9l.6.5.7.1zm13.8 1l-2.3-4.6a9.4 9.4 0 0 1-.8 0h-.6v4.6h-1.5V34.1H83c1.3 0 2.3.3 3 .8.6.5 1 1.3 1 2.4 0 .7-.2 1.4-.5 1.9a3 3 0 0 1-1.5 1.2l2.7 5H86zm-.6-8c0-.8-.2-1.3-.6-1.7-.4-.3-1-.5-1.8-.5h-.7v4.5h.6c.9 0 1.5-.2 2-.6.3-.4.5-1 .5-1.7zm8.5 2.8v.9a23.2 23.2 0 0 1 0 .6h-4.1c0 1 .2 1.6.6 2 .4.5.9.7 1.5.7h.7a2.4 2.4 0 0 0 1-.7l.5 1a16.3 16.3 0 0 1-.7.5 3.2 3.2 0 0 1-.7.3 3.6 3.6 0 0 1-1 .1c-.5 0-.9 0-1.3-.2a2.5 2.5 0 0 1-1-.8c-.3-.3-.5-.8-.7-1.3a7 7 0 0 1-.2-2c0-.6 0-1.2.2-1.7s.4-1 .7-1.3a2.6 2.6 0 0 1 2.1-1c.8 0 1.4.3 1.8.8.4.4.6 1.2.6 2.1zm-2.5-1.8c-.4 0-.8.2-1.1.6-.3.4-.5 1-.5 1.7h2.9v-.2a6.5 6.5 0 0 0 0-.3c0-.6-.1-1-.3-1.3-.2-.3-.6-.5-1-.5zm7.7.7a3.3 3.3 0 0 0-.5-.4l-.9-.2c-.3 0-.6 0-.8.2a.8.8 0 0 0-.3.6c0 .3.1.6.3.7l.8.7.4.3c.6.3 1 .6 1.3 1 .3.3.5.8.5 1.4 0 .6-.2 1.1-.7 1.6-.4.4-1 .6-1.8.6h-.9a3.6 3.6 0 0 1-.6-.3 2 2 0 0 1-.5-.3 3 3 0 0 1-.3-.3l.7-1 .2.2a2.2 2.2 0 0 0 .8.4l.6.1c.4 0 .7 0 .9-.2a.8.8 0 0 0 .3-.7 1.4 1.4 0 0 0 0-.5 1.1 1.1 0 0 0-.3-.3 2 2 0 0 0-.4-.3 19.1 19.1 0 0 0-.5-.4l-.5-.3-1.1-1c-.3-.3-.4-.8-.4-1.3l.1-.8a2 2 0 0 1 .5-.7l.8-.4a2.5 2.5 0 0 1 .9-.2 3 3 0 0 1 .7.1 2.4 2.4 0 0 1 1 .5l.3.3-.6 1zm7.4 1.1v.9a23.2 23.2 0 0 1-.1.6h-4c0 1 .2 1.6.6 2 .3.5.8.7 1.5.7h.6a2.4 2.4 0 0 0 1-.7l.5 1a16.3 16.3 0 0 1-.6.5 3.2 3.2 0 0 1-.7.3 3.6 3.6 0 0 1-1 .1c-.5 0-1 0-1.3-.2a2.5 2.5 0 0 1-1-.8c-.3-.3-.6-.8-.7-1.3a7 7 0 0 1-.2-2c0-.6 0-1.2.2-1.7s.4-1 .7-1.3a2.6 2.6 0 0 1 2-1c.8 0 1.4.3 1.8.8.5.4.7 1.2.7 2.1zm-2.5-1.8c-.5 0-.9.2-1.1.6-.3.4-.5 1-.5 1.7h2.8v-.2a6.5 6.5 0 0 0 0-.3c0-.6 0-1-.3-1.3-.2-.3-.5-.5-1-.5zm3.8 5c0-.4 0-.8.3-1.1.1-.3.4-.6.7-.8a3 3 0 0 1 1-.4l1.3-.1h.4v-.8c0-.6-.1-1-.4-1.3-.2-.3-.5-.4-1-.4-.4 0-.7 0-1 .2l-.6.5-.5-.9a4 4 0 0 1 .8-.6 3.4 3.4 0 0 1 1.5-.4c.8 0 1.5.3 1.9.7.4.5.6 1.2.6 2.2v3.6a14.6 14.6 0 0 0 0 1.6h-1.2v-.9l-.3.4a1.6 1.6 0 0 1-.3.3 2 2 0 0 1-.5.3 1.7 1.7 0 0 1-.6.1c-.3 0-.6 0-.8-.2a2 2 0 0 1-1.2-1.1 2.4 2.4 0 0 1-.1-.9zm2.4 1a1.4 1.4 0 0 0 .8-.2l.3-.3a7.2 7.2 0 0 1 .2-.2V42h-.4a3 3 0 0 0-1.5.3c-.3.2-.5.5-.5 1 0 .4.1.7.3.9.2.2.4.3.8.3zm8-5.7a1 1 0 0 0-.2 0 1.6 1.6 0 0 0-.4-.1c-.4 0-.7 0-1 .3a2 2 0 0 0-.5.7v5.8h-1.3v-7.9h1.2v1.1l.3-.4c0-.2.2-.3.3-.4l.5-.3a1.9 1.9 0 0 1 .6-.1h.4l.3.1-.1 1.2zm5.5.4a6 6 0 0 0-.1-.2 1.7 1.7 0 0 0-.3-.2 1.9 1.9 0 0 0-.4-.1 1.7 1.7 0 0 0-.5-.1 2 2 0 0 0-.8.1l-.6.5-.5 1a6.5 6.5 0 0 0 0 2.8l.4.9c.2.3.4.4.6.5l.8.1c.4 0 .7 0 1-.2l.4-.3.5.9a2.4 2.4 0 0 1-.2.2 2 2 0 0 1-.4.3 2.7 2.7 0 0 1-.6.2l-.8.1c-.5 0-.9 0-1.3-.2a2.4 2.4 0 0 1-1-.7c-.3-.3-.5-.8-.6-1.3-.2-.5-.3-1.2-.3-2 0-.7.1-1.3.3-1.9.2-.5.5-.9.8-1.2a3 3 0 0 1 1-.7 3.3 3.3 0 0 1 2.6 0l.3.3c.2 0 .2.2.3.2l-.6 1zm6.3 6.3v-5c0-.7-.1-1.2-.3-1.5-.3-.3-.6-.4-1-.4-.5 0-.8 0-1 .3l-.7.5v6.1h-1.3V33.8l1.3-.1v4.6l.3-.2.4-.3a2.5 2.5 0 0 1 1.4-.5c.7 0 1.2.3 1.6.7.4.5.6 1.2.6 2.2v5.2H130zm-110.6-34v-1-.5c2.8 0 5.2-2 5.2-4.3 0-1.2-.7-2-1.2-2.6h.3c.4.3 1.6 1.5 1.6 3.1 0 2.7-2.8 5.3-5.9 5.3M16.7 2a1.9 1.9 0 0 0-.4-.8c0-.3.1-.5.6-.3-.2.2 0 .7 0 .7s.4-.3.3-.6c.8.2.2 1.2-.5 1M16 3.3a2.9 2.9 0 0 0-.5-1.1c-.3-.3-.7-.6-1.2-.6a3 3 0 0 0-1 .2l-.2-.8c0-.2.3-.4 1-.4 1.4 0 2.2.6 2.2 1.7 0 .4-.1.7-.3 1m3.7 18.4a.8.8 0 0 1 .3 0c.4 1.1 2 3.2 2 3.3h.1l2.2-.2h.3v.4l-.1.7c-.3-.3-.8-.5-1.5-.5l-.7.1h-.1l.4.5c.7.7 1.3 1.2 1.3 1.6 0 .3-.2.6-.5.7 0-.7-.7-1.7-1.4-2.2v.2l-.1.7c0 1.3-.1 1.6-.6 1.6a.8.8 0 0 1-.2 0c.2-.4.3-.8.3-1.6v-.6V25.6a7.5 7.5 0 0 0-1-.1c-.6 0-1 0-1.4.3-.2-.1-.4-.4-.4-.6 0-.3.2-.3.4-.3h.4l1.6.1c-.2-.7-.8-1.6-1.8-2.8 0-.3.2-.5.5-.5M11.2 25l1.6-.1h.4c.2 0 .4 0 .4.3 0 .2-.2.5-.5.6-.3-.3-.7-.3-1.4-.3h-1V27c0 .8.2 1.2.4 1.5a.9.9 0 0 1-.2 0c-.5 0-.6-.2-.6-1.5V26.1h-.1c-.7.5-1.4 1.5-1.5 2.2-.2-.1-.4-.5-.4-.7 0-.4.6-1 1.2-1.6l.4-.4a2.7 2.7 0 0 0-.7-.2c-.7 0-1.2.2-1.5.5l-.2-.7v-.3h.3l2.3.1s1.6-2.2 2-3.3a.8.8 0 0 1 .4 0c.3 0 .4.2.5.5-1 1.2-1.6 2.1-1.8 2.8M6.9 6C7 4.5 8 3.3 8.5 3l.2.1c-.4.5-1.1 1.4-1.1 2.6 0 2.3 2.4 4.3 5.2 4.3a6.8 6.8 0 0 0 0 .6v1C9.7 11.4 7 8.8 7 6M28 11c1.4 2.3 2.5 2.2 4.2 2.2-1.4-1-2.3-2.4-2.7-3l-2.6-4.2a6.1 6.1 0 0 0-2-3.3l.9-.4c-1.7 0-3.4-.9-4.3-.9-.6 0-1 .4-1 .9s.6 1 1.6 1h.8c.5.7 1 1.3 1 2.3 0 1.8-2.2 3.2-4.4 3.2h-.3c-.2-.5-.9-1.2-.9-2 0-1.5 1-2.7 1-4 0-1-.5-1.5-.6-1.7l.6-.8h-.6L15.9 0c-.4 0-.6.1-.6.3v.1a2.8 2.8 0 0 0-.5-.1 4.2 4.2 0 0 0-.8-.1c-1 0-1.3.4-1.3.8 0 .3.2.8.5 1.3a3 3 0 0 1 1-.4c.6 0 1 .6 1.3 1.2h-.8c-1 0-1.6-.3-1.7-.3 0 .1.2.5.7.7.8.3 1.8.4 2 .4 0 0-.2.4-.4.4l-2-.5c0 .4 1 1.2 1.8 1.5-.7 1-1.7 2-2 3.4a5.3 5.3 0 0 1-.4 0c-2.2 0-4.4-1.4-4.4-3.2 0-1 .4-1.6 1-2.4l.8.1c1 0 1.5-.5 1.6-1 0-.5-.4-.9-1-.9-1 0-2.6.9-4.3.9l.8.4a6.1 6.1 0 0 0-1.9 3.3L2.7 10c-.4.7-1.3 2-2.7 3.1 1.7 0 2.8 0 4.2-2.2l1.3-2 .4.7-2.7 4.2c-.4.7-1.3 2-2.7 3.1 1.7 0 2.8 0 4.2-2.1L7 11l.5.6-3.2 5c-.4.8-1.3 2.1-2.7 3.2 1.6 0 2.7 0 4.2-2.2l3-5 .7.4-3.8 6c-.4.7-1.3 2-2.7 3.2 1.6 0 2.7 0 4.2-2.2l3.9-6.3.7.3-4.5 7c-.4.7-1.3 2-2.7 3.1 1.7 0 2.8 0 4.2-2.2l4.7-7.5h.2l.2 1.2c0 2.4-1.6 4.4-3.4 6l.5.1h.8c-.4 1-1.4 2.2-1.8 2.9l-2.1-.2c-.6 0-.7.3-.7.7 0 .5.3 1 .6 1.2 0-.3.3-.7 1.4-.7h.1C9 26.1 8 27 8 27.7c0 .4.5 1 1.1 1v-.3c0-.6.4-1.2.9-1.7v.3c0 1.3 0 1.9.9 1.9.4 0 .7-.2.7-.3-.5-.5-.5-.9-.5-1.6a51.9 51.9 0 0 1 0-1.2h.6s1.2 0 1.4.5c.4-.3.8-.7.8-1.1 0-.3-.1-.7-.7-.7l-1.6.2 1.5-2.2.6.9c0-.5.3-2 1-3 .2.7.3 1.3.3 2.6 0 3.2-.8 5.6-2.4 6 .2.4.7.7 1.1.7.6 0 1-.7 1.3-1.3.1.5.6 1.6 1 1.6.6 0 1-1.1 1.2-1.6.3.6.7 1.3 1.3 1.3.4 0 .9-.3 1-.7-1.5-.4-2.3-2.8-2.3-6 0-1.3.1-2 .2-2.5a6 6 0 0 1 1 2.9c.4-.3.6-.6.7-.9a15 15 0 0 1 1.4 2.2l-1.5-.2c-.6 0-.7.4-.7.7 0 .4.4.8.7 1.1.3-.6 1.5-.5 1.5-.5h.6a3.3 3.3 0 0 0 0 .6v.6c0 .7 0 1.1-.6 1.6.1 0 .4.3.8.3.8 0 1-.6 1-1.9v-.3c.3.5.8 1.1.8 1.7v.3c.6 0 1.1-.6 1.1-1 0-.8-1-1.6-1.3-2 1.2 0 1.4.4 1.5.7a1.6 1.6 0 0 0 .6-1.2c0-.4 0-.7-.7-.7-.6 0-1.5 0-2 .2-.5-.7-1.5-2-1.9-3l.8.1h.5C20 20 18.3 18 18.3 15.7l.2-1.2h.2l4.7 7.5c1.4 2.3 2.5 2.2 4.2 2.2-1.4-1-2.3-2.4-2.8-3L20.4 14l.7-.2 4 6.3c1.3 2.2 2.5 2.1 4.1 2.1-1.4-1-2.3-2.4-2.7-3L22.7 13l.6-.4 3.1 5c1.4 2.2 2.5 2.2 4.2 2.2-1.4-1-2.3-2.4-2.7-3.1l-3.2-5.1.5-.6 2.3 3.7c1.4 2.2 2.5 2.1 4.2 2.1a12 12 0 0 1-2.8-3l-2.6-4.3.4-.8zm17.4 18h-4.8V1.3h4.8z"/>
    <path d="M45.4 56.4h-4.8V29h4.8z" fill="red"/>
    <path d="M45.4 84h-4.8V56.4h4.8z" fill="#fc0"/>
  </g>
</svg>