<svg xmlns="http://www.w3.org/2000/svg" width="612" height="170.3">
  <path fill="#009BA3" d="M467.7 70.5l-8.6-8.5-20.7-20.8-8.6 8.6 20.8 20.7-20.8 20.8 8.6 8.5L459.1 79z"/>
  <path fill="#007480" d="M467.6 70.5l-8.6 8.6-8.5-8.6L459 62z"/>
  <path d="M40.9 51h9.2l10.3 16.5L70.6 51h9.2v39h-8.5V64.5l-11 16.7h-.2L49.3 64.7V90h-8.4V51zM91.3 51h8.6v39h-8.6V51zM109.6 70.6v-.1c0-11.1 8.4-20.2 20.3-20.2 7.4 0 11.8 2.5 15.4 6l-5.5 6.3c-3-2.7-6.1-4.4-10-4.4-6.6 0-11.3 5.5-11.3 12.1v.1c0 6.7 4.6 12.3 11.3 12.3 4.5 0 7.2-1.8 10.3-4.6l5.5 5.5a20 20 0 0 1-16 7c-11.5.1-20-8.8-20-20zM154.1 51h17.8c5 0 8.8 1.4 11.4 4a12 12 0 0 1 3.3 8.9v.1a12 12 0 0 1-8.4 12.1l9.5 13.9h-10l-8.4-12.5h-6.7V90H154V51zm17.3 18.9c4.2 0 6.6-2.2 6.6-5.5v-.1c0-3.7-2.6-5.6-6.7-5.6h-8.5v11.2h8.6zM194.3 70.6v-.1c0-11.1 8.7-20.2 20.8-20.2 12 0 20.7 9 20.7 20.1v.1c0 11.1-8.7 20.2-20.8 20.2a20 20 0 0 1-20.7-20.1zm32.5 0v-.1c0-6.7-4.9-12.3-11.8-12.3s-11.7 5.5-11.7 12.1v.1c0 6.7 4.9 12.3 11.8 12.3s11.7-5.4 11.7-12.1zM245.1 51h9.2l10.3 16.5L274.8 51h9.2v39h-8.5V64.5l-11 16.7h-.2l-10.9-16.5V90H245V51zM308.5 50.7h7.9L333.1 90h-9l-3.6-8.7H304l-3.6 8.7h-8.7l16.8-39.3zm9 23L312.3 61l-5.2 12.6h10.4zM344.8 58.9H333V51h32.3v7.9h-11.9V90h-8.6V58.9zM381.9 50.7h7.9L406.5 90h-9l-3.6-8.7h-16.5l-3.6 8.7h-8.7l16.8-39.3zm9 23L385.7 61l-5.2 12.6h10.4z"/>
  <path fill="#FFCB00" d="M506.7 41.2l-8.6 8.6 20.8 20.7-20.8 20.8 8.6 8.5L536 70.5z"/>
  <path fill="#75BE01" d="M570.1 70.5l-8.5-8.5-20.8-20.8-8.5 8.6L553 70.5l-20.7 20.8 8.5 8.5L561.6 79z"/>
  <path fill="#32912E" d="M570 70.5l-8.5 8.5-8.5-8.5 8.5-8.6z"/>
  <path fill="#E10057" d="M472.5 41.2l-8.5 8.6 20.7 20.7L464 91.3l8.5 8.5L493.3 79l8.5-8.5z"/>
  <path fill="#A70836" d="M501.8 70.5l-8.6 8.5-8.5-8.5 8.5-8.6z"/>
  <path fill="#FF9D01" d="M535.9 70.5l-8.6 8.6-8.5-8.6 8.5-8.5z"/>
  <g>
    <path d="M227.1 120h13.5v1.9h-11.4v6.4h10.2v1.9h-10.2v6.5h11.5v1.9h-13.6V120zM244.6 124.8h2v3.6c1-2.3 3-3.9 5.6-3.8v2.2h-.2c-3 0-5.5 2.2-5.5 6.3v5.5h-2v-13.8zM256.1 126.6h-1.9v-1.8h1.9v-1.2c0-1.6.4-2.8 1.2-3.5a4 4 0 0 1 3-1.1c1 0 1.6.1 2.3.3v1.8a7 7 0 0 0-2-.3c-1.6 0-2.4 1-2.4 2.9v1.1h4.4v1.8h-4.3v11.9h-2v-11.9zM264 131.8c0-3.9 3-7.2 7.2-7.2a7 7 0 0 1 7.2 7.1v.1c0 3.9-3.1 7.2-7.2 7.2a7.2 7.2 0 0 1-7.2-7.2zm12.2 0c0-3-2.2-5.4-5.1-5.4-3 0-5 2.4-5 5.3v.1c0 3 2.2 5.3 5.1 5.3 3 0 5-2.4 5-5.3zM282.2 119.2h2v19.4h-2v-19.4zM288.9 141l.9-1.6a9.1 9.1 0 0 0 5.3 1.8c3 0 5-1.7 5-4.9v-1.6a6.6 6.6 0 0 1-5.4 2.9 6.4 6.4 0 0 1-6.5-6.4v-.2c0-4 3.2-6.5 6.5-6.5 2.6 0 4.3 1.3 5.4 2.8v-2.5h2v11.4c0 2.1-.6 3.8-1.8 4.9a7.3 7.3 0 0 1-5.2 1.8 11 11 0 0 1-6.2-1.9zm11.3-10c0-2.9-2.4-4.7-5.1-4.7s-4.8 1.8-4.8 4.6v.1c0 2.8 2.2 4.7 4.8 4.7 2.6 0 5.1-1.9 5.1-4.7zM314.7 119.6h2.3v2.3h-2.3v-2.3zm.2 5.2h2v13.8h-2v-13.8zM320.5 136.8l1-1.5a8.2 8.2 0 0 0 4.8 1.8c1.6 0 2.8-.9 2.8-2.2v-.1c0-1.4-1.6-1.9-3.4-2.4-2.2-.6-4.5-1.4-4.5-3.9v-.1c0-2.4 2-3.9 4.7-3.9 1.7 0 3.5.6 4.9 1.5l-.9 1.5a8 8 0 0 0-4.1-1.3c-1.6 0-2.7.9-2.7 2v.1c0 1.3 1.7 1.8 3.5 2.4 2.1.6 4.4 1.5 4.4 3.9v.1c0 2.6-2.2 4.1-4.9 4.1-1.8 0-4-.7-5.6-2zM335.4 134.9v-8.3h-1.9v-1.8h1.9v-4.1h2v4.1h4.4v1.8h-4.4v8c0 1.7.9 2.3 2.3 2.3.7 0 1.3-.1 2-.5v1.8c-.7.4-1.5.6-2.5.6-2.1 0-3.8-1.1-3.8-3.9zM353.4 124.8h2v2.8c1.1-1.6 2.7-3.1 5.3-3.1 3.3 0 6.6 2.6 6.6 7.1v.1c0 4.5-3.2 7.2-6.6 7.2a6.3 6.3 0 0 1-5.3-2.9v6.9h-2v-18.1zm11.8 6.9c0-3.3-2.2-5.4-4.8-5.4-2.6 0-5 2.2-5 5.3v.1a5 5 0 0 0 5 5.3c2.6 0 4.8-1.9 4.8-5.3zM371.1 124.8h2v3.6c1-2.3 3-3.9 5.6-3.8v2.2h-.2c-3 0-5.5 2.2-5.5 6.3v5.5h-2v-13.8zM380.4 131.8c0-3.9 3-7.2 7.2-7.2a7 7 0 0 1 7.2 7.1v.1c0 3.9-3.1 7.2-7.2 7.2a7.2 7.2 0 0 1-7.2-7.2zm12.2 0c0-3-2.2-5.4-5.1-5.4-3 0-5 2.4-5 5.3v.1c0 3 2.2 5.3 5.1 5.3 3 0 5-2.4 5-5.3zM398.3 141l.9-1.6a9.1 9.1 0 0 0 5.3 1.8c3 0 5-1.7 5-4.9v-1.6a6.6 6.6 0 0 1-5.4 2.9 6.4 6.4 0 0 1-6.5-6.4v-.2c0-4 3.2-6.5 6.5-6.5 2.6 0 4.3 1.3 5.4 2.8v-2.5h2v11.4c0 2.1-.6 3.8-1.8 4.9a7.3 7.3 0 0 1-5.2 1.8 11 11 0 0 1-6.2-1.9zm11.2-10c0-2.9-2.4-4.7-5.1-4.7-2.6 0-4.8 1.8-4.8 4.6v.1c0 2.8 2.2 4.7 4.8 4.7 2.7 0 5.1-1.9 5.1-4.7zM416.1 124.8h2v3.6c1-2.3 3-3.9 5.6-3.8v2.2h-.2c-3 0-5.5 2.2-5.5 6.3v5.5h-2v-13.8zM425.2 134.6c0-3 2.4-4.5 5.9-4.5 1.8 0 3 .2 4.2.6v-.5c0-2.5-1.5-3.8-4.1-3.8-1.6 0-2.9.4-4.2 1l-.6-1.7c1.5-.7 3-1.1 5-1.1 1.9 0 3.4.5 4.4 1.5.9.9 1.4 2.3 1.4 4v8.4h-2v-2.1a6.3 6.3 0 0 1-5 2.4c-2.5.1-5-1.4-5-4.2zm10.1-1.1v-1.3a14 14 0 0 0-4-.6c-2.6 0-4 1.1-4 2.8v.1c0 1.7 1.6 2.7 3.5 2.7 2.4 0 4.5-1.5 4.5-3.7zM441.6 124.8h2v2.3c.9-1.4 2.1-2.6 4.4-2.6 2.2 0 3.7 1.2 4.4 2.7 1-1.5 2.4-2.7 4.8-2.7 3.2 0 5.1 2.1 5.1 5.5v8.5h-2v-8c0-2.7-1.3-4.1-3.6-4.1-2.1 0-3.8 1.5-3.8 4.3v7.9h-2v-8.1c0-2.6-1.4-4.1-3.5-4.1-2.2 0-3.8 1.8-3.8 4.3v7.8h-2v-13.7zM466.9 124.8h2v2.3c.9-1.4 2.1-2.6 4.4-2.6 2.2 0 3.7 1.2 4.4 2.7 1-1.5 2.4-2.7 4.8-2.7 3.2 0 5.1 2.1 5.1 5.5v8.5h-2v-8c0-2.7-1.3-4.1-3.6-4.1-2.1 0-3.8 1.5-3.8 4.3v7.9h-2v-8.1c0-2.6-1.4-4.1-3.5-4.1-2.2 0-3.8 1.8-3.8 4.3v7.8h-2v-13.7zM492.3 119.6h2.3v2.3h-2.3v-2.3zm.1 5.2h2v13.8h-2v-13.8zM498.3 131.7c0-4 2.8-7.2 6.6-7.2 4.1 0 6.4 3.2 6.4 7.3v.7h-10.9c.3 3 2.4 4.7 4.8 4.7 1.9 0 3.2-.8 4.3-1.9l1.3 1.1a7.4 7.4 0 0 1-5.7 2.6 7 7 0 0 1-6.8-7.3zm11-.8c-.2-2.5-1.6-4.7-4.4-4.7-2.4 0-4.2 2-4.5 4.7h8.9zM514.9 124.8h2v3.6c1-2.3 3-3.9 5.6-3.8v2.2h-.2c-3 0-5.5 2.2-5.5 6.3v5.5h-2v-13.8zM527.8 135.9v2.6h-2v-19.4h2v8.4c1.1-1.6 2.7-3.1 5.3-3.1 3.3 0 6.6 2.6 6.6 7.1v.1c0 4.5-3.2 7.2-6.6 7.2a5.8 5.8 0 0 1-5.3-2.9zm9.7-4.2c0-3.3-2.2-5.4-4.8-5.4-2.6 0-5 2.2-5 5.3v.1a5 5 0 0 0 5 5.3c2.6 0 4.8-1.9 4.8-5.3zM542.3 134.6c0-3 2.4-4.5 5.9-4.5 1.8 0 3 .2 4.2.6v-.5c0-2.5-1.5-3.8-4.1-3.8-1.6 0-2.9.4-4.2 1l-.6-1.7c1.5-.7 3-1.1 5-1.1 1.9 0 3.4.5 4.4 1.5.9.9 1.4 2.3 1.4 4v8.4h-2v-2.1a6.3 6.3 0 0 1-5 2.4c-2.4.1-5-1.4-5-4.2zm10.2-1.1v-1.3a14 14 0 0 0-4-.6c-2.6 0-4 1.1-4 2.8v.1c0 1.7 1.6 2.7 3.5 2.7 2.4 0 4.5-1.5 4.5-3.7zM558.8 124.8h2v3.6c1-2.3 3-3.9 5.6-3.8v2.2h-.2c-3 0-5.5 2.2-5.5 6.3v5.5h-2v-13.8zM566.9 135.8h2.4v2.8h-2.4v-2.8z"/>
  </g>
</svg>